<svg width="25" height="25" viewBox="0 0 25 25" fill="none" xmlns="http://www.w3.org/2000/svg">
<path d="M23.75 21.25H1.25C0.560008 21.25 0 21.81 0 22.5C0 23.19 0.560008 23.75 1.25 23.75H23.75C24.44 23.75 25 23.19 25 22.4999C25 21.81 24.44 21.25 23.75 21.25ZM1.25 3.74997H23.75C24.44 3.74997 25 3.19 25 2.49997C25 1.80994 24.44 1.24997 23.75 1.24997H1.25C0.560008 1.25001 0 1.80998 0 2.50001C0 3.19 0.560008 3.74997 1.25 3.74997ZM23.75 11.25H1.25C0.560008 11.25 0 11.81 0 12.5C0 13.19 0.560008 13.75 1.25 13.75H23.75C24.44 13.75 25 13.19 25 12.5C25 11.81 24.44 11.25 23.75 11.25Z" fill="white"/>
</svg>
