<svg width="34" height="34" viewBox="0 0 34 34" fill="none" xmlns="http://www.w3.org/2000/svg">
<g clip-path="url(#clip0)">
<path d="M17.0043 0.647888H16.9958C7.62238 0.647888 0 8.12323 0 17.3153C0 20.9613 1.1985 24.3406 3.23638 27.0845L1.11775 33.2764L7.65213 31.2284C10.3403 32.9744 13.5469 33.9827 17.0043 33.9827C26.3776 33.9827 34 26.5053 34 17.3153C34 8.12531 26.3776 0.647888 17.0043 0.647888ZM26.8961 24.1844C26.486 25.3198 24.8583 26.2615 23.5599 26.5366C22.6716 26.722 21.5114 26.8699 17.6056 25.2823C12.6097 23.2531 9.3925 18.2758 9.14175 17.9528C8.90163 17.6299 7.123 15.3173 7.123 12.9255C7.123 10.5338 8.36188 9.36912 8.86125 8.86909C9.27138 8.45866 9.94925 8.27115 10.5995 8.27115C10.8099 8.27115 10.999 8.28157 11.169 8.2899C11.6684 8.31073 11.9191 8.3399 12.2485 9.11285C12.6586 10.0816 13.6574 12.4734 13.7764 12.7193C13.8975 12.9651 14.0186 13.2985 13.8486 13.6214C13.6893 13.9547 13.549 14.1027 13.2983 14.386C13.0475 14.6694 12.8095 14.886 12.5588 15.1902C12.3293 15.4548 12.07 15.7382 12.359 16.2278C12.648 16.7069 13.6468 18.3049 15.1173 19.5883C17.0149 21.2447 18.5534 21.7738 19.1038 21.9989C19.5139 22.1655 20.0026 22.1259 20.3023 21.8134C20.6826 21.4113 21.1523 20.7446 21.6304 20.0884C21.9704 19.6175 22.3996 19.5592 22.8501 19.7258C23.3091 19.8821 25.738 21.0592 26.2374 21.303C26.7368 21.5488 27.0661 21.6655 27.1873 21.8718C27.3062 22.078 27.3062 23.0468 26.8961 24.1844Z" fill="#3ECE90"/>
</g>
<defs>
<clipPath id="clip0">
<rect width="34" height="33.3348" fill="white" transform="translate(0 0.647888)"/>
</clipPath>
</defs>
</svg>
