<svg xmlns="http://www.w3.org/2000/svg" viewBox="0 0 512 512"><defs><radialGradient id="a" cx="36.55" cy="70.54" r="417.55" gradientTransform="matrix(.39 1.45 -2.3 .62 183.74 -117.76)" gradientUnits="userSpaceOnUse"><stop offset="0" stop-color="#ffe6a0"/><stop offset="1" stop-color="#875a1e"/></radialGradient></defs><g data-name="Слой 2"><g data-name="Слой 1"><path fill="url(#a)" d="M0 0h512v512H0z"/><path d="M430.52 369.6C402.24 345.67 403 316.23 403 284.24a47 47 0 0027.3-77.37l-.45-.52a36.69 36.69 0 00-3.52-3.47c-7.9-7-18.19-10.6-29.94-10.6 5.89-21.07-3.37-39.06-20.91-46 5.25 10.76-2.58 29.93-20.85 29.93-20.53 0-31.32 16.06-31.32 31.72s14.35 28.71 30 28.71c21.5 0 24.79-14.35 41.76-14.35a15.66 15.66 0 010 31.32c-11.74 0-21.51-3.91-32.62-3.91-20.88 0-26 5.87-43.65 5.87-24.26 0-40.72-4.33-52.49-9.31 4.23-9 7.67-21.34 9.06-37.47 3.76 3 7.32 9.05 9.6 20.49 11.33-29 1.85-56-10.41-76.73 4 .54 9.14 3.28 15.74 10.12-5.84-29-29.23-44.16-49.1-52.85 3.64-2.42 31.8-21.9 31.8-46.6 0-10.15-3-13.22-7.1-13.22s-5.07 4-7 9.68c-3.87 11.62-14.11 20.65-33.56 20.65-36.54 0-47.14 5.93-47.14 5.93s-24.53-3.64-35.62-3.64a15 15 0 00-11.24 24.93c-.87.76-5.72 5-8.31 7.51a18.91 18.91 0 00-37.22 4.76c0 3.52 7 34.34 7 34.34l10.33-12.68h29.51c5.72 0 11 3.65 11 9.74S140.27 166 127 168.17c-11.43 1.91-21.64 3.21-21.64 3.21s-3.83-2.61-10.36-6.52c2.61 11.74 6.49 30.92 6.49 30.92s19.75-6.13 19.75 4.64c0 19.25-28.74 44-28.74 85.07 0 35.06 40.2 71.84 40.2 71.84s-4.7 41.06-27.1 63.83a16.85 16.85 0 10-11.09 31 6.8 6.8 0 001.38.14h60.72c0-22.68 24.69-50.79 43.31-62.27 13.8-8.51 35.37-15.56 35.37-15.56s40.2-10.26 69.27-10.26c18.27 19.57 65.11 27.25 69.39 31.53 6.28 6.28 14 22.17 16.56 27.55a16.85 16.85 0 10-11.67 29h65.8c-8.64-8.73-14.12-52.29-14.12-82.69zM162.13 110.1a117.41 117.41 0 0013.26-3c-2.68 7.67-6.81 15.87-15.84 15.87-10.33 0-12.91-12.91-12.91-12.91 1.94 1.94 9.36 1.06 15.49.04zm49 183.51a23.22 23.22 0 01-15.08-5.53c-.36 6-.22 16.75 4.82 21h-26.1c5-4.27 5.19-15 4.82-21a23.31 23.31 0 01-31.21-34.6L187.83 209l39.44 44.46a23.55 23.55 0 012.51 2.83 23.31 23.31 0 01-18.64 37.3z"/></g></g></svg>