<svg width="34" height="34" fill="none" xmlns="http://www.w3.org/2000/svg"><g clip-path="url(#clip0)"><path d="M17.004.648h-.008C7.622.648 0 8.123 0 17.315a16.33 16.33 0 003.236 9.77l-2.118 6.191 6.534-2.048a17.093 17.093 0 009.352 2.755C26.378 33.983 34 26.505 34 17.315S26.378.648 17.004.648zm9.892 23.536c-.41 1.136-2.038 2.078-3.336 2.353-.888.185-2.049.333-5.954-1.255-4.996-2.029-8.214-7.006-8.464-7.33-.24-.322-2.019-2.635-2.019-5.027 0-2.391 1.239-3.556 1.738-4.056.41-.41 1.088-.598 1.739-.598.21 0 .399.01.569.019.5.02.75.05 1.08.823.41.969 1.408 3.36 1.527 3.606.122.246.243.58.073.902-.16.334-.3.482-.55.765-.252.283-.49.5-.74.804-.23.265-.489.548-.2 1.038.289.479 1.288 2.077 2.758 3.36 1.898 1.657 3.436 2.186 3.987 2.41.41.168.899.128 1.198-.185.38-.402.85-1.068 1.328-1.725.34-.47.77-.529 1.22-.362.46.156 2.888 1.333 3.387 1.577.5.246.83.363.95.569.12.206.12 1.175-.29 2.312z" fill="#3ECE90"/></g><defs><clipPath id="clip0"><path fill="#fff" transform="translate(0 .648)" d="M0 0h34v33.335H0z"/></clipPath></defs></svg>